<svg enable-background="new 0 0 24 24" height="512" viewBox="0 0 24 24" width="512" xmlns="http://www.w3.org/2000/svg"><path d="m22.5 24h-21c-.827 0-1.5-.673-1.5-1.5v-13.478c0-.491.24-.951.643-1.231l11.071-7.702c.172-.119.399-.119.571 0l11.071 7.702c.404.281.644.741.644 1.231v13.478c0 .827-.673 1.5-1.5 1.5zm-10.5-22.891-10.786 7.503c-.134.094-.214.247-.214.41v13.478c0 .276.224.5.5.5h21c.276 0 .5-.224.5-.5v-13.478c0-.164-.08-.317-.214-.411z"/><path d="m19 24h-7c-.276 0-.5-.224-.5-.5v-6c0-.276.224-.5.5-.5h7c.276 0 .5.224.5.5v6c0 .276-.224.5-.5.5zm-6.5-1h6v-5h-6z"/><path d="m15.5 18h-7c-.276 0-.5-.224-.5-.5v-6c0-.276.224-.5.5-.5h7c.276 0 .5.224.5.5v6c0 .276-.224.5-.5.5zm-6.5-1h6v-5h-6z"/><path d="m12 24h-7c-.276 0-.5-.224-.5-.5v-6c0-.276.224-.5.5-.5h7c.276 0 .5.224.5.5v6c0 .276-.224.5-.5.5zm-6.5-1h6v-5h-6z"/><path d="m12 13.5c-.276 0-.5-.224-.5-.5v-1.5c0-.276.224-.5.5-.5s.5.224.5.5v1.5c0 .276-.224.5-.5.5z"/><path d="m8.5 19.5c-.276 0-.5-.224-.5-.5v-1.5c0-.276.224-.5.5-.5s.5.224.5.5v1.5c0 .276-.224.5-.5.5z"/><path d="m15.5 19.5c-.276 0-.5-.224-.5-.5v-1.5c0-.276.224-.5.5-.5s.5.224.5.5v1.5c0 .276-.224.5-.5.5z"/></svg>